<svg xmlns="http://www.w3.org/2000/svg" baseProfile="basic" viewBox="0 0 80 80"><path fill="#BAA794" d="M57.7 7.9l1.6 2.5-3.4.1z"/><path d="M33 61.7c-6.5 4-7 8.7 1.4 13.3 9.2 5 14.7 3.9 21.8-.3 6.3-3.6 4.9-8.6-5.7-12.8-8.5-3.4-12.9-3-17.5-.2z" opacity=".2"/><path fill="#BAA794" d="M34.9 64.2l1.7 4.7-2.2 3.2 2.6-1.8 1.7 1.3-.2-1.9 4-1-4.4-.2-1.8-4.7z"/><path fill="#BAA794" d="M42.1 65.5l2.2 6.6-2.6 2.9 3.6-1.5 1.9 1.2-.4-1.8 4.9-1.9-5.5.3-2.5-6.6z"/><path fill="#825012" d="M40.9 24.3c-5.1 1.3-10.8 4.8-12.4 6.3-1.6 1.5-9.7 6.5-9.7 17.4 0 4.1 1.4 10.8 9 15.1 2 1.1 4.1 1.3 5.3 1.4 1 .1 1.8.8 3 .6 1.9-.3 1.9-.6 1.9-.6s2.2 2 4.9 1.1c3.5-1.2 3.5-5.1 3.5-5.1s11.2-7.3 12.9-17.1c1.4-8-2.5-15.5-4.3-17.3-1.7-2-9-3.2-14.1-1.8z"/><path fill="#762C07" d="M55 6.6c-3.4-1.3-6-1.3-9.3 5.1-3.2 6.2-3 9.2-4.7 11-1.7 1.8-4.3 2.9-4.3 2.9l4.9-.3.1 4.9 3.9-4.1 2.3 5.6 2.8-4.6 3.3 5.3.3-4.8 3.9 4.1s-2.8-5.6-3-7.1c-.2-1.5-2.2-7.9-1.3-9.9S58 7.8 55 6.6zM24 18.1c-3.2-.3-2.5 2.7-2.5 2.7s-1.5-1.5-2.9 0c-1.3 1.5.2 3.3.2 3.3s-1.8-.6-2.6 1.4c-1 2.5 1.2 3.4 1.2 3.4S15 28 14.8 31c-.1 2 2 3.1 2.4 6.7.8 7.9 1.6 10.7 1.6 10.7s10.7-4.9 12.9-9.8.7-6.9.7-6.9-2.8-1.9-3.3-4.8-1.6-8.5-5.1-8.8z"/><path fill="#CC291F" d="M55.3 7.4C55 7.4 53 6.1 51.8 6c-1.2-.2-1.2-1.2-.8-1.6.3-.4 1-.3 1-.3s-.4-.5.2-1c.7-.5 1.3-.1 1.3-.1s-.1-.7.5-1c.5-.2.9.4.9.4s.1-1 1.1-.4.9 5.1.9 5.1l.9.9-1.2 1.5s.5 1.2-.2 2.6c-.8 1.4-2.3 3.1-3 2.3s2.3-3.7 2.3-3.7-1.2 0-1.5-1.2 1.1-2.1 1.1-2.1z"/><path fill="#2D3134" d="M55.8 8.9c-.5.1-.4 1.1.1 1 .6-.1.4-1.1-.1-1z"/></svg>