<svg xmlns="http://www.w3.org/2000/svg" viewBox="0 0 32 32"><rect width="30" height="30" x="1" y="1" fill="#eef5fd" rx="5" ry="5"/><path fill="#d7e2f2" d="M26,1H16V31H26a5,5,0,0,0,5-5V6A5,5,0,0,0,26,1Z"/><path fill="#ffc661" d="M25.85,13.51a2.85,2.85,0,0,0-2.76-2H20.44a.9.9,0,0,1-.86-.62l-.82-2.53a2.9,2.9,0,0,0-5.52,0l-.82,2.53a.9.9,0,0,1-.86.62H8.91A2.9,2.9,0,0,0,7.2,16.75l2.15,1.56a.9.9,0,0,1,.33,1l-.82,2.53a2.9,2.9,0,0,0,4.46,3.24l2.15-1.56a.9.9,0,0,1,1.06,0l2.15,1.56a2.84,2.84,0,0,0,3.41,0,2.84,2.84,0,0,0,1.05-3.24l-.82-2.53a.9.9,0,0,1,.33-1l2.15-1.56A2.84,2.84,0,0,0,25.85,13.51Z"/><path fill="#e49f4e" d="M16.53,23.53l2.15,1.56a2.84,2.84,0,0,0,3.41,0,2.84,2.84,0,0,0,1.05-3.24l-.82-2.53a.9.9,0,0,1,.33-1l2.15-1.56a2.9,2.9,0,0,0-1.71-5.25H20.44a.9.9,0,0,1-.86-.62l-.82-2.53a2.85,2.85,0,0,0-2.76-2v17A.93.93,0,0,1,16.53,23.53Z"/></svg>