<?xml version="1.0" standalone="no"?>
<!DOCTYPE svg PUBLIC "-//W3C//DTD SVG 20010904//EN"
 "http://www.w3.org/TR/2001/REC-SVG-20010904/DTD/svg10.dtd">
<svg version="1.0" xmlns="http://www.w3.org/2000/svg"
 width="700.000000pt" height="700.000000pt" viewBox="0 0 700.000000 700.000000"
 preserveAspectRatio="xMidYMid meet">
<metadata>
Created by potrace 1.11, written by Peter Selinger 2001-2013
</metadata>
<g transform="translate(0.000000,700.000000) scale(0.100000,-0.100000)"
fill="#000000" stroke="none">
<path d="M3392 5599 c-122 -20 -251 -89 -342 -182 -92 -94 -119 -151 -219
-459 -126 -388 -121 -375 -160 -415 -60 -62 -65 -63 -436 -63 -369 0 -436 -7
-550 -59 -392 -180 -489 -706 -185 -1011 36 -36 176 -145 312 -243 136 -98
258 -191 271 -207 34 -40 51 -94 43 -144 -3 -22 -48 -173 -100 -333 -53 -161
-101 -323 -107 -360 -37 -210 56 -451 225 -585 66 -53 194 -113 274 -128 84
-17 240 -8 323 19 80 25 130 57 429 274 260 189 290 204 369 180 56 -16 51
-13 313 -205 274 -200 325 -232 402 -258 390 -129 801 138 841 548 11 104 -6
181 -116 517 -89 274 -100 316 -97 367 3 42 11 65 31 92 15 20 149 124 297
231 295 214 349 265 410 387 98 197 90 426 -22 616 -51 86 -152 182 -244 229
-140 73 -154 75 -569 80 -387 5 -397 6 -449 52 -31 27 -46 66 -143 366 -51
160 -109 324 -130 365 -45 94 -167 220 -260 268 -120 63 -267 85 -411 61z"/>
</g>
</svg>
